<svg aria-hidden="true" style="position: absolute; width: 0; height: 0; overflow: hidden;" version="1.1" xmlns="http://www.w3.org/2000/svg" xmlns:xlink="http://www.w3.org/1999/xlink">
<defs>
<symbol id="icon-search" viewBox="0 0 32 32">
<path d="M24.041 22.156l5.711 5.709-1.887 1.887-5.709-5.711c-2.124 1.703-4.767 2.629-7.489 2.625-6.624 0-12-5.376-12-12s5.376-12 12-12c6.624 0 12 5.376 12 12 0.004 2.723-0.922 5.365-2.625 7.489zM21.367 21.167c1.692-1.74 2.637-4.073 2.633-6.5 0-5.157-4.177-9.333-9.333-9.333-5.157 0-9.333 4.176-9.333 9.333 0 5.156 4.176 9.333 9.333 9.333 2.427 0.004 4.76-0.941 6.5-2.633l0.2-0.2z"></path>
</symbol>
<symbol id="icon-vector" viewBox="0 0 36 32">
<path  d="M3.765 15.878l25.832-0.258M19.987 3.598l12.279 12.279-12.526 12.526"></path>
</symbol>
<symbol id="icon-call" viewBox="0 0 32 32">
<path   d="M30.119 24.541c-1.15-1.158-3.934-2.849-5.285-3.53-1.759-0.886-1.904-0.959-3.287 0.069-0.922 0.686-1.536 1.298-2.615 1.068s-3.425-1.528-5.479-3.576c-2.054-2.047-3.427-4.461-3.658-5.537s0.392-1.682 1.071-2.606c0.957-1.303 0.885-1.52 0.067-3.28-0.638-1.368-2.378-4.127-3.54-5.27-1.244-1.229-1.244-1.011-2.045-0.678-0.652 0.274-1.278 0.608-1.87 0.997-1.158 0.77-1.801 1.409-2.251 2.369s-0.652 3.213 1.67 7.431c2.322 4.218 3.951 6.374 7.323 9.736s5.964 5.17 9.754 7.295c4.689 2.626 6.487 2.114 7.451 1.665s1.606-1.086 2.377-2.244c0.39-0.591 0.724-1.216 0.999-1.868 0.334-0.799 0.551-0.799-0.68-2.042z"></path>
</symbol>
<symbol id="icon-arrow" viewBox="0 0 16 32">
<path stroke-linejoin="round" stroke-linecap="round" stroke-miterlimit="4" stroke-width="3.2" d="M1.6 30.4l12.8-14.4-12.8-14.4"></path>
</symbol>
<symbol id="icon-location" viewBox="0 0 23 32">
<path fill="#cda274" style="fill: var(--color1, #cda274)" d="M11.259 0c6.216 0 11.259 4.608 11.259 10.286 0 9.143-11.259 21.714-11.259 21.714s-11.259-12.571-11.259-21.714c0-5.678 5.043-10.286 11.259-10.286zM11.259 16c0.891 0 1.761-0.268 2.502-0.77s1.318-1.216 1.659-2.052 0.43-1.754 0.256-2.641c-0.174-0.887-0.603-1.701-1.233-2.341s-1.432-1.075-2.306-1.251c-0.874-0.176-1.779-0.086-2.602 0.26s-1.526 0.932-2.021 1.684-0.759 1.636-0.759 2.54c0.001 1.212 0.476 2.374 1.321 3.231s1.989 1.339 3.183 1.34z"></path>
</symbol>
<symbol id="icon-worldwide" viewBox="0 0 32 32">
<path fill="none" stroke="#cda274" style="stroke: var(--color1, #cda274)" stroke-linejoin="miter" stroke-linecap="butt" stroke-miterlimit="10" stroke-width="2.7826" d="M30.609 16c0-8.068-6.541-14.609-14.609-14.609s-14.609 6.541-14.609 14.609c0 8.068 6.541 14.609 14.609 14.609s14.609-6.541 14.609-14.609z"></path>
<path fill="#cda274" style="fill: var(--color1, #cda274)" d="M29.84 10.2c-1.131 0.007-1.019 2.105-2.428 1.115-0.523-0.367-0.845-0.9-1.502-1.062-0.574-0.142-1.161 0.006-1.728 0.104-0.644 0.112-1.408 0.162-1.896 0.653-0.472 0.472-0.722 1.106-1.225 1.581-0.972 0.92-1.383 1.925-0.753 3.226 0.605 1.251 1.872 1.93 3.238 1.841 1.342-0.090 2.737-0.873 2.698 1.089-0.014 0.694 0.13 1.175 0.342 1.82 0.196 0.595 0.183 1.171 0.228 1.785 0.083 1.147 0.293 2.433 0.859 3.446l1.056-1.498c0.13-0.185 0.403-0.445 0.467-0.664 0.115-0.387-0.111-1.053-0.137-1.487s-0.014-0.874-0.080-1.308c-0.093-0.608-0.451-1.178-0.5-1.779-0.091-1.119 0.113-2.013-0.745-2.949-0.828-0.903-2.041-1.119-3.201-0.936-0.584 0.092-2.936 0.47-1.992-0.873 0.186-0.264 0.512-0.481 0.722-0.732 0.182-0.219 0.341-0.621 0.555-0.792s1.197-0.367 1.478-0.28c0.282 0.087 0.575 0.496 0.819 0.677 0.451 0.342 0.978 0.569 1.535 0.663 0.962 0.142 2.972-0.421 2.956-1.661-0.003-0.595-0.552-1.423-0.769-1.98zM18.71 20.407c-0.375-1.589-2.521-2.12-3.679-2.981-0.665-0.496-1.257-1.261-2.131-1.323-0.403-0.029-0.74 0.059-1.139-0.045-0.366-0.095-0.653-0.293-1.043-0.241-0.729 0.096-1.188 0.879-1.971 0.773-0.743-0.1-1.508-0.974-1.677-1.686-0.217-0.915 0.503-1.211 1.273-1.293 0.322-0.034 0.683-0.071 0.992 0.047 0.407 0.152 0.599 0.553 0.964 0.756 0.685 0.377 0.824-0.226 0.719-0.838-0.157-0.916-0.34-1.29 0.472-1.92 0.563-0.435 1.045-0.749 0.955-1.53-0.053-0.459-0.303-0.666-0.070-1.123 0.177-0.348 0.662-0.661 0.978-0.869 0.816-0.535 3.495-0.496 2.4-1.994-0.322-0.44-0.915-1.226-1.478-1.333-0.704-0.134-1.016 0.656-1.507 1.005-0.507 0.36-1.494 0.77-2.001 0.212-0.683-0.75 0.453-0.996 0.704-1.519s-0.582-1.512-1.028-1.763l-2.098 2.367c-0.060 0.396-0.039 0.801 0.062 1.189s0.28 0.751 0.525 1.067c0.417 0.54 1.082 0.714 1.112 1.451 0.030 0.708-0.080 1.071-0.541 1.568-0.199 0.212-0.34 0.514-0.543 0.713-0.248 0.243-0.156 0.168-0.544 0.235-0.729 0.124-1.35 0.315-2.055 0.511-1.174 0.326-1.283-1.603-1.818-2.36l-1.76 1.43c-0.019 0.234 0.289 0.666 0.372 0.92 0.481 1.456 1.451 2.583 2.077 3.976 0.66 1.476 2.431 1.066 3.213 2.359 0.694 1.147-0.047 2.599 0.472 3.8 0.377 0.872 1.267 1.062 1.881 1.699 0.627 0.644 0.614 1.524 0.71 2.362 0.108 0.985 0.283 1.962 0.524 2.923 0.085 0.332 0.163 0.771 0.389 1.045 0.155 0.188 0.686 0.35 0.472 0.413 0.3 0.050 0.834 0.331 1.084 0.125 0.329-0.272 0.241-1.109 0.298-1.487 0.171-1.126 0.731-2.227 1.487-3.069 0.747-0.831 1.77-1.394 2.401-2.337 0.615-0.919 0.8-2.159 0.545-3.234zM16.359 22.27c-0.422 0.758-1.363 1.266-1.967 1.869-0.164 0.163-0.513 0.73-0.719 0.607-0.147-0.088-0.197-0.823-0.251-0.991-0.28-0.849-0.813-1.589-1.528-2.121-0.22-0.168-0.767-0.386-0.893-0.616-0.141-0.25-0.014-0.84-0.009-1.111 0.008-0.397-0.172-1.056-0.075-1.416 0.113-0.416-0.104-0.165 0.265-0.247 0.195-0.044 1 0.099 1.243 0.149 0.386 0.081 0.598 0.322 0.902 0.566 0.8 0.645 1.68 1.144 2.576 1.638 0.694 0.387 0.898 0.876 0.455 1.672zM11.46 2.762c0.334 0.328 0.648 0.716 1.145 0.748 0.471 0.032 0.915-0.224 1.326 0.098 0.456 0.354 0.785 0.802 1.39 0.913 0.586 0.107 1.206-0.237 1.351-0.84 0.141-0.574-0.163-1.199-0.181-1.775 0-0.080 0.043-0.435-0.012-0.496-0.041-0.045-0.381 0.006-0.434 0.007-0.382 0.011-0.762 0.038-1.142 0.079-1.384 0.151-2.739 0.5-4.025 1.037 0.171 0.119 0.386 0.166 0.581 0.228zM23.563 6.739c0.598 0 1.204-0.269 1.011-0.964-0.162-0.583-0.438-1.215-1.109-0.901-0.427 0.2-1.033 0.708-1.083 1.212-0.057 0.572 0.782 0.653 1.181 0.653zM23.086 9.782c0.61 0.367 1.516 0.195 1.976-0.33 0.36-0.411 0.572-1.124 1.218-1.123 0.285-0.001 0.558 0.112 0.762 0.312 0.268 0.278 0.215 0.54 0.272 0.888 0.127 0.782 0.962 0.045 1.179-0.258 0.141-0.198 0.332-0.491 0.267-0.748-0.059-0.24-0.338-0.496-0.462-0.716-0.362-0.637-0.659-1.379-1.202-1.893-0.522-0.496-1.163-0.438-1.658 0.076-0.405 0.425-0.876 0.761-1.154 1.278-0.196 0.363-0.416 0.537-0.812 0.631-0.218 0.052-0.467 0.071-0.65 0.218-0.51 0.404-0.22 1.373 0.263 1.665z"></path>
</symbol>
<symbol id="icon-mail" viewBox="0 0 40 32">
<path fill="none" stroke="#cda274" style="stroke: var(--color1, #cda274)" stroke-linejoin="round" stroke-linecap="round" stroke-miterlimit="4" stroke-width="3.3684" d="M35.174 1.684h-29.927c-1.968 0-3.563 1.602-3.563 3.579v21.474c0 1.977 1.595 3.579 3.563 3.579h29.927c1.968 0 3.563-1.602 3.563-3.579v-21.474c0-1.977-1.595-3.579-3.563-3.579z"></path>
<path fill="none" stroke="#cda274" style="stroke: var(--color1, #cda274)" stroke-linejoin="round" stroke-linecap="round" stroke-miterlimit="4" stroke-width="3.3684" d="M6.737 6.737l13.474 11.789 13.474-11.789"></path>
</symbol>
</defs>
</svg>
