<svg aria-hidden="true" style="position: absolute; width: 0; height: 0; overflow: hidden;" version="1.1" xmlns="http://www.w3.org/2000/svg" xmlns:xlink="http://www.w3.org/1999/xlink">
<defs>
<symbol id="icon-2" viewBox="0 0 29 32">
<path fill="#cda274" style="fill: var(--color1, #cda274)" d="M29.305 7.134v-6.926h-9.991v10.884h-1.998v5.937h-8.658v5.937h-8.659v8.905h26.974v-20.779h-6.661v-3.958h8.991zM20.314 1.197h7.992v4.947h-7.992v-4.947zM9.658 18.018h7.66v1.649h-7.66v-1.649zM0.999 23.955h7.66v1.649h-7.66v-1.649zM25.975 30.882h-24.976v-4.288h7.66v2.144h0.999v-8.081h7.66v3.463h0.999v-9.4h7.659v16.161zM25.975 12.082v1.649h-7.66v-1.649h7.66z"></path>
<path fill="#cda274" style="fill: var(--color1, #cda274)" d="M26.808 2.187h-2.331v0.989h2.331v-0.989z"></path>
<path fill="#cda274" style="fill: var(--color1, #cda274)" d="M26.808 4.166h-4.995v0.989h4.995v-0.989z"></path>
<path fill="#cda274" style="fill: var(--color1, #cda274)" d="M10.823 3.836v0.989h2.79l-12.468 12.348 0.707 0.7 12.468-12.349v2.104h0.999v-3.793h-4.496z"></path>
<path fill="#cda274" style="fill: var(--color1, #cda274)" d="M3.163 27.584h-1.332v0.989h1.332v-0.989z"></path>
<path fill="#cda274" style="fill: var(--color1, #cda274)" d="M7.826 27.584h-1.332v0.989h1.332v-0.989z"></path>
<path fill="#cda274" style="fill: var(--color1, #cda274)" d="M11.822 21.647h-1.332v0.989h1.332v-0.989z"></path>
<path fill="#cda274" style="fill: var(--color1, #cda274)" d="M16.484 21.647h-1.332v0.989h1.332v-0.989z"></path>
<path fill="#cda274" style="fill: var(--color1, #cda274)" d="M20.481 15.71h-1.332v0.989h1.332v-0.989z"></path>
<path fill="#cda274" style="fill: var(--color1, #cda274)" d="M25.142 15.71h-1.332v0.989h1.332v-0.989z"></path>
</symbol>
<symbol id="icon-1" viewBox="0 0 32 32">
<path fill="#cda274" style="fill: var(--color1, #cda274)" d="M31.648 14.983v-1.282l-15.148-10.969h-1.351l-3.408 2.467v-1.957h1.021v-3.063h-10.209v3.063h1.021v7.871l-3.573 2.587v1.282h2.552v7.657h-2.552v7.146h2.552v2.042h26.544v-10.72c1.408 0 2.552-1.145 2.552-2.552s-1.145-2.552-2.552-2.552v-1.021h2.552zM3.573 1.201h8.167v1.021h-8.167v-1.021zM10.72 3.243v2.697l-6.125 4.436v-7.132h6.125zM2.042 26.724v2.042h-1.021v-5.105h23.481v5.105h-1.021v-2.042h-1.021v2.042h-1.021v-2.042h-1.021v2.042h-1.021v-2.042h-1.021v2.042h-1.021v-2.042h-1.021v2.042h-1.021v-2.042h-1.021v2.042h-1.021v-2.042h-1.021v2.042h-1.021v-2.042h-1.021v2.042h-1.021v-2.042h-1.021v2.042h-1.021v-2.042h-1.021v2.042h-1.021v-2.042h-1.021v2.042h-1.021v-2.042h-1.021zM28.075 30.808h-24.502v-1.021h21.95v-7.146h-21.95v-7.657h24.502v1.021h-18.531l-3.828 2.552 3.828 2.552h18.531v9.699zM27.054 17.025v3.063h-1.021v-3.063h1.021zM10.72 18.046v-1.021h14.293v1.021h-14.293zM25.012 19.067v1.021h-14.293v-1.021h14.293zM9.699 17.129v2.857l-2.143-1.429 2.143-1.428zM30.627 18.557c0 0.844-0.687 1.531-1.531 1.531h-1.021v-3.063h1.021c0.844 0 1.531 0.687 1.531 1.531zM1.381 13.963l14.098-10.209h0.69l14.098 10.209h-28.887z"></path>
<path fill="#cda274" style="fill: var(--color1, #cda274)" d="M15.824 5.285c-2.252 0-4.084 1.832-4.084 4.084s1.832 4.084 4.084 4.084c2.252 0 4.084-1.832 4.084-4.084s-1.832-4.084-4.084-4.084zM15.824 12.431c-1.689 0-3.063-1.374-3.063-3.063s1.374-3.063 3.063-3.063c1.689 0 3.063 1.374 3.063 3.063s-1.374 3.063-3.063 3.063z"></path>
</symbol>
<symbol id="icon-3" viewBox="0 0 32 32">
<path fill="#cda274" style="fill: var(--color1, #cda274)" d="M21.615 28.092h-1.054v-22.67c0-0.105-0.053-0.264-0.105-0.316l-1.529-4.587c-0.053-0.211-0.264-0.369-0.474-0.369s-0.422 0.158-0.474 0.369l-1.529 4.587c-0.053 0.105-0.105 0.211-0.105 0.316v25.833c0 0.316 0.211 0.527 0.527 0.527h3.163c0.316 0 0.527-0.211 0.527-0.527v-2.109h1.582c0.316 0 0.527-0.211 0.527-0.527v-15.816h-1.054v15.289zM17.398 5.949h2.109v18.979h-2.109v-18.979zM18.452 2.364l0.844 2.531h-1.687l0.843-2.531zM19.507 30.728h-2.109v-4.745h2.109v4.745z"></path>
<path fill="#cda274" style="fill: var(--color1, #cda274)" d="M31.105 0.15h-5.799c-0.316 0-0.527 0.211-0.527 0.527v30.578c0 0.316 0.211 0.527 0.527 0.527h5.799c0.316 0 0.527-0.211 0.527-0.527v-30.578c0-0.316-0.211-0.527-0.527-0.527zM30.578 30.728h-4.745v-3.69h2.636v-1.054h-2.636v-4.218h2.636v-1.054h-2.636v-4.218h2.636v-1.054h-2.636v-4.218h2.636v-1.054h-2.636v-4.218h2.636v-1.054h-2.636v-3.69h4.745v29.523z"></path>
<path fill="#cda274" style="fill: var(--color1, #cda274)" d="M7.381 5.422c-4.059 0-7.381 3.321-7.381 7.381 0 2.847 1.634 5.43 4.218 6.643v6.537c0 0.316 0.211 0.527 0.527 0.527h2.109v1.582h1.054v-1.582h2.109c0.316 0 0.527-0.211 0.527-0.527v-6.537c2.583-1.213 4.218-3.796 4.218-6.643 0-4.059-3.321-7.381-7.381-7.381zM9.49 25.456h-4.218v-1.582h4.218v1.582zM9.806 18.655c-0.211 0.053-0.316 0.264-0.316 0.474v3.69h-4.218v-1.054h2.636v-1.054h-2.636v-1.582c0-0.211-0.105-0.422-0.316-0.474-2.372-1.002-3.901-3.321-3.901-5.852 0-3.48 2.847-6.326 6.326-6.326s6.326 2.847 6.326 6.326c0 2.531-1.529 4.85-3.901 5.852z"></path>
<path fill="#cda274" style="fill: var(--color1, #cda274)" d="M8.594 9.798l-1.213 1.213-1.213-1.213-0.738 0.738 1.423 1.423v5.588h1.054v-5.588l1.423-1.423-0.738-0.738z"></path>
</symbol>
<symbol id="icon-4" viewBox="0 0 32 32">
<path fill="#cda274" style="fill: var(--color1, #cda274)" d="M31.828 30.911h-1.021v1.021h1.021v-1.021z"></path>
<path fill="#cda274" style="fill: var(--color1, #cda274)" d="M24.68 5.382v-4.085h-8.169v-1.021h-1.021v1.021h-8.169v11.032l-3.063-1.769v-0.073h-0.126l-0.11-0.064-0.037 0.064h-3.811v7.148c0 1.126 0.916 2.042 2.042 2.042h5.106v2.042h4.483l-1.838 9.19h-9.793v1.021h29.614v-1.021h-7.751l-1.838-9.19h4.483v-8.169h4.085v-1.021h-0.878l0.924-3.695-1.893-2.366c1.917 0.336 3.379 2.008 3.379 4.019h1.021c0-1.671-0.811-3.153-2.056-4.085h2.566v-1.021h-7.148zM3.236 17.636c0 0.563-0.458 1.021-1.021 1.021s-1.021-0.458-1.021-1.021v-6.127h2.042v6.127zM7.009 13.688l1.021 1.768-3.3 1.906 2.042-3.537 0.237-0.137zM4.257 12.056l0.137-0.238 1.768 1.021-1.905 3.301v-4.084zM4.529 18.657l3.538-2.042h0.274v2.042h-3.812zM15.489 30.911h-4.483l1.838-9.19h2.645v9.19zM20.993 30.911h-4.483v-9.19h2.645l1.838 9.19zM23.613 8.835l0.924 3.695h-0.878v8.169h-15.317v-1.021h1.021v-3.811l0.063-0.037-0.063-0.109v-0.127h-0.073l-0.948-1.642v-11.634h15.317v3.063h-3.064v1.021h2.566c-1.245 0.932-2.056 2.414-2.056 4.085h1.021c0-2.011 1.462-3.683 3.379-4.020l-1.893 2.367zM27.697 9.078l-0.863 3.452h-1.246l-0.863-3.453 0.975-1.219v2.119h1.021v-2.118l0.975 1.219z"></path>
<path fill="#cda274" style="fill: var(--color1, #cda274)" d="M11.405 4.361h-1.021v1.021h1.021v-1.021z"></path>
<path fill="#cda274" style="fill: var(--color1, #cda274)" d="M21.616 17.636h-1.021v1.021h1.021v-1.021z"></path>
<path fill="#cda274" style="fill: var(--color1, #cda274)" d="M20.595 11.509c0-2.534-2.061-4.595-4.595-4.595-0.826 0-1.6 0.222-2.271 0.605l-1.401-1.926-0.826 0.601 1.403 1.929c-0.92 0.841-1.5 2.046-1.5 3.387 0 2.534 2.061 4.595 4.595 4.595 0.826 0 1.6-0.222 2.271-0.605l1.401 1.926 0.826-0.601-1.403-1.929c0.92-0.841 1.5-2.046 1.5-3.387zM16 15.083c-1.97 0-3.574-1.604-3.574-3.574 0-1.002 0.416-1.908 1.083-2.557l4.157 5.717c-0.498 0.263-1.065 0.414-1.666 0.414zM14.334 8.35c0.498-0.264 1.065-0.415 1.666-0.415 1.97 0 3.574 1.604 3.574 3.574 0 1.002-0.416 1.908-1.083 2.557l-4.157-5.717z"></path>
</symbol>
</defs>
</svg>
